<svg xmlns="http://www.w3.org/2000/svg" width="24" height="24" viewBox="0 0 24 24" fill="none">
    <path fill-rule="evenodd" clip-rule="evenodd" d="M6.55183 0.333374H17.4368C21.4035 0.333374 23.6668 2.57337 23.6668 6.55171V17.4484C23.6668 21.4034 21.4152 23.6667 17.4485 23.6667H6.55183C2.5735 23.6667 0.333496 21.4034 0.333496 17.4484V6.55171C0.333496 2.57337 2.5735 0.333374 6.55183 0.333374ZM12.9569 12.9684H16.2702C16.8069 12.9567 17.2385 12.525 17.2385 11.9884C17.2385 11.4517 16.8069 11.02 16.2702 11.02H12.9569V7.73002C12.9569 7.19336 12.5252 6.76169 11.9885 6.76169C11.4518 6.76169 11.0202 7.19336 11.0202 7.73002V11.02H7.71852C7.46185 11.02 7.21685 11.125 7.03018 11.3C6.85518 11.4867 6.75018 11.7305 6.75018 11.9884C6.75018 12.525 7.18185 12.9567 7.71852 12.9684H11.0202V16.27C11.0202 16.8067 11.4518 17.2384 11.9885 17.2384C12.5252 17.2384 12.9569 16.8067 12.9569 16.27V12.9684Z" fill="#24A19C"/>
</svg>