<svg xmlns="http://www.w3.org/2000/svg" width="20" height="18" viewBox="0 0 20 18" fill="none">
    <path fill-rule="evenodd" clip-rule="evenodd" d="M14.9394 0C16.2804 0 17.5704 0.53 18.5194 1.481C19.4694 2.43 20.0004 3.71 20.0004 5.05V12.95C20.0004 15.74 17.7304 18 14.9394 18H5.0604C2.2694 18 0.000396729 15.74 0.000396729 12.95V5.05C0.000396729 2.26 2.2594 0 5.0604 0H14.9394ZM16.5304 6.54L16.6104 6.46C16.8494 6.17 16.8494 5.75 16.5994 5.46C16.4604 5.311 16.2694 5.22 16.0704 5.2C15.8604 5.189 15.6604 5.26 15.5094 5.4L11.0004 9C10.4204 9.481 9.5894 9.481 9.0004 9L4.5004 5.4C4.1894 5.17 3.7594 5.2 3.5004 5.47C3.2304 5.74 3.2004 6.17 3.4294 6.47L3.5604 6.6L8.1104 10.15C8.6704 10.59 9.3494 10.83 10.0604 10.83C10.7694 10.83 11.4604 10.59 12.0194 10.15L16.5304 6.54Z" fill="white"/>
</svg>