<svg xmlns="http://www.w3.org/2000/svg" width="20" height="20" viewBox="0 0 20 20" fill="none">
    <path d="M17.75 10.1917H14.85C14.0334 10.1917 13.3084 10.6417 12.9417 11.375L12.2417 12.7583C12.075 13.0917 11.7417 13.3 11.375 13.3H8.64169C8.38335 13.3 8.01669 13.2417 7.77502 12.7583L7.07502 11.3833C6.70835 10.6583 5.97502 10.2 5.16669 10.2H2.25002C1.92502 10.2 1.66669 10.4583 1.66669 10.7833V13.5C1.66669 16.525 3.48335 18.3333 6.51669 18.3333H13.5C16.3584 18.3333 18.1167 16.7667 18.3334 13.9833V10.775C18.3334 10.4583 18.075 10.1917 17.75 10.1917Z" fill="#A0AAB8"/>
    <path d="M10.625 1.66663C10.625 1.32496 10.3417 1.04163 10 1.04163C9.65833 1.04163 9.375 1.32496 9.375 1.66663V3.33329H10.625V1.66663Z" fill="#A0AAB8"/>
    <path d="M18.3334 8.17504V9.04171C18.15 8.97504 17.95 8.94171 17.75 8.94171H14.85C13.5584 8.94171 12.4 9.65837 11.825 10.8084L11.2 12.0417H8.81669L8.19169 10.8167C7.61669 9.65837 6.45835 8.94171 5.16669 8.94171H2.25002C2.05002 8.94171 1.85002 8.97504 1.66669 9.04171V8.17504C1.66669 5.14171 3.47502 3.33337 6.50835 3.33337H9.37502V5.99171L8.77502 5.39171C8.53335 5.15004 8.13335 5.15004 7.89169 5.39171C7.65002 5.63337 7.65002 6.03337 7.89169 6.27504L9.55835 7.94171C9.56669 7.95004 9.57502 7.95004 9.57502 7.95837C9.63335 8.00837 9.69169 8.05004 9.75835 8.07504C9.84169 8.10837 9.91669 8.12504 10 8.12504C10.0834 8.12504 10.1584 8.10837 10.2334 8.07504C10.3084 8.05004 10.3834 8.00004 10.4417 7.94171L12.1084 6.27504C12.35 6.03337 12.35 5.63337 12.1084 5.39171C11.8667 5.15004 11.4667 5.15004 11.225 5.39171L10.625 5.99171V3.33337H13.4917C16.525 3.33337 18.3334 5.14171 18.3334 8.17504Z" fill="#A0AAB8"/>
</svg>