<svg xmlns="http://www.w3.org/2000/svg" width="24" height="24" viewBox="0 0 24 24" fill="none">
    <path d="M18.07 8.51001L9.50999 4.23001C3.75999 1.35001 1.39999 3.71001 4.27999 9.46001L5.14999 11.2C5.39999 11.71 5.39999 12.3 5.14999 12.81L4.27999 14.54C1.39999 20.29 3.74999 22.65 9.50999 19.77L18.07 15.49C21.91 13.57 21.91 10.43 18.07 8.51001ZM14.84 12.75H9.43999C9.02999 12.75 8.68999 12.41 8.68999 12C8.68999 11.59 9.02999 11.25 9.43999 11.25H14.84C15.25 11.25 15.59 11.59 15.59 12C15.59 12.41 15.25 12.75 14.84 12.75Z" fill="#24A19C"/>
</svg>